<svg width="159" height="159" viewBox="0 0 159 159" fill="none" xmlns="http://www.w3.org/2000/svg">
<path d="M158.174 51.7834V107.312C158.174 111.647 157.632 115.846 156.627 119.854C156.345 120.971 156.029 122.066 155.667 123.15C148.996 143.706 129.692 158.573 106.901 158.573H51.3722C41.1447 158.573 31.6172 155.582 23.6249 150.412C22.6315 149.78 21.6719 149.102 20.7237 148.402C8.23851 139.067 0.133301 124.132 0.133301 107.312V51.7834C0.133301 23.4829 23.0717 0.533203 51.3835 0.533203H106.912C135.224 0.533203 158.174 23.4829 158.174 51.7834Z" fill="white"/>
<path d="M77.7875 33.3827L69.0276 20.9653C68.7905 20.5815 69.2082 20.1299 69.6146 20.3331L75.8007 23.4714C83.3979 27.3321 89.9002 33.0328 94.7091 40.0656C95.7138 41.5331 95.4767 43.5312 94.1447 44.7165L75.0331 61.8074C74.6831 62.1235 74.1413 61.7397 74.3219 61.3107L79.3566 50.2818C81.874 44.7616 81.2757 38.3271 77.7875 33.3714V33.3827ZM139.739 96.2489C137.041 91.7109 135.28 88.7533 135.28 88.7533C135.167 88.5952 134.942 88.6742 134.93 88.8661L132.729 105.675C132.729 106.047 132.729 106.375 132.695 106.668C132.526 108.012 131.465 108.565 130.291 108.565C129.681 108.565 129.049 108.418 128.496 108.147C128.496 108.147 68.3954 87.2293 63.5978 85.1748C62.5479 84.7345 61.5884 84.1475 61.1707 83.0977L60.3241 80.9867C58.2131 75.6698 58.1002 69.7659 60.008 64.3699L67.3343 43.7118C67.402 43.5086 67.1762 43.3506 67.0408 43.4973L64.3202 46.2517L47.568 63.2523L24.7876 86.4052C22.8008 88.4146 22.2251 91.4512 23.3201 94.0589L37.205 126.841C37.476 127.484 37.5776 128.184 37.4985 128.862C37.3518 130.194 36.2229 131.04 35.0489 131.04C34.5183 131.04 33.9878 130.871 33.5249 130.51L27.8807 126.039L18.5111 118.25C18.3192 117.957 17.8903 118.07 17.8677 118.386L23.6587 150.4C31.651 155.559 41.1786 158.562 51.4061 158.562H106.935C129.715 158.562 149.03 143.695 155.701 123.138C150.102 113.701 143.837 103.146 139.762 96.2376L139.739 96.2489Z" fill="url(#paint0_linear_2333_7136)"/>
<defs>
<linearGradient id="paint0_linear_2333_7136" x1="17.8451" y1="89.4306" x2="155.679" y2="89.4306" gradientUnits="userSpaceOnUse">
<stop stop-color="#F92C0B"/>
<stop offset="1" stop-color="#EC1C24"/>
</linearGradient>
</defs>
</svg>
