<svg width="24" height="25" viewBox="0 0 24 25" fill="none" xmlns="http://www.w3.org/2000/svg">
<path d="M8 6.25C7.59 6.25 7.25 5.91 7.25 5.5V2.5C7.25 2.09 7.59 1.75 8 1.75C8.41 1.75 8.75 2.09 8.75 2.5V5.5C8.75 5.91 8.41 6.25 8 6.25Z" fill="#171717"/>
<path d="M16 6.25C15.59 6.25 15.25 5.91 15.25 5.5V2.5C15.25 2.09 15.59 1.75 16 1.75C16.41 1.75 16.75 2.09 16.75 2.5V5.5C16.75 5.91 16.41 6.25 16 6.25Z" fill="#171717"/>
<path d="M8.5 15.0003C8.37 15.0003 8.24 14.9703 8.12 14.9203C7.99 14.8703 7.89 14.8003 7.79 14.7103C7.61 14.5203 7.5 14.2703 7.5 14.0003C7.5 13.8703 7.53 13.7403 7.58 13.6203C7.63 13.5003 7.7 13.3903 7.79 13.2903C7.89 13.2003 7.99 13.1303 8.12 13.0803C8.48 12.9303 8.93 13.0103 9.21 13.2903C9.39 13.4803 9.5 13.7403 9.5 14.0003C9.5 14.0603 9.49 14.1303 9.48 14.2003C9.47 14.2603 9.45 14.3203 9.42 14.3803C9.4 14.4403 9.37 14.5003 9.33 14.5603C9.3 14.6103 9.25 14.6603 9.21 14.7103C9.02 14.8903 8.76 15.0003 8.5 15.0003Z" fill="#171717"/>
<path d="M12 14.9999C11.87 14.9999 11.74 14.9699 11.62 14.9199C11.49 14.8699 11.39 14.7999 11.29 14.7099C11.11 14.5199 11 14.2699 11 13.9999C11 13.8699 11.03 13.7399 11.08 13.6199C11.13 13.4999 11.2 13.3899 11.29 13.2899C11.39 13.1999 11.49 13.1299 11.62 13.0799C11.98 12.9199 12.43 13.0099 12.71 13.2899C12.89 13.4799 13 13.7399 13 13.9999C13 14.0599 12.99 14.1299 12.98 14.1999C12.97 14.2599 12.95 14.3199 12.92 14.3799C12.9 14.4399 12.87 14.4999 12.83 14.5599C12.8 14.6099 12.75 14.6599 12.71 14.7099C12.52 14.8899 12.26 14.9999 12 14.9999Z" fill="#171717"/>
<path d="M15.5 14.9999C15.37 14.9999 15.24 14.9699 15.12 14.9199C14.99 14.8699 14.89 14.7999 14.79 14.7099C14.75 14.6599 14.71 14.6099 14.67 14.5599C14.63 14.4999 14.6 14.4399 14.58 14.3799C14.55 14.3199 14.53 14.2599 14.52 14.1999C14.51 14.1299 14.5 14.0599 14.5 13.9999C14.5 13.7399 14.61 13.4799 14.79 13.2899C14.89 13.1999 14.99 13.1299 15.12 13.0799C15.49 12.9199 15.93 13.0099 16.21 13.2899C16.39 13.4799 16.5 13.7399 16.5 13.9999C16.5 14.0599 16.49 14.1299 16.48 14.1999C16.47 14.2599 16.45 14.3199 16.42 14.3799C16.4 14.4399 16.37 14.4999 16.33 14.5599C16.3 14.6099 16.25 14.6599 16.21 14.7099C16.02 14.8899 15.76 14.9999 15.5 14.9999Z" fill="#171717"/>
<path d="M8.5 18.5002C8.37 18.5002 8.24 18.4702 8.12 18.4202C8 18.3702 7.89 18.3002 7.79 18.2102C7.61 18.0202 7.5 17.7602 7.5 17.5002C7.5 17.3702 7.53 17.2402 7.58 17.1202C7.63 16.9902 7.7 16.8802 7.79 16.7902C8.16 16.4202 8.84 16.4202 9.21 16.7902C9.39 16.9802 9.5 17.2402 9.5 17.5002C9.5 17.7602 9.39 18.0202 9.21 18.2102C9.02 18.3902 8.76 18.5002 8.5 18.5002Z" fill="#171717"/>
<path d="M12 18.5002C11.74 18.5002 11.48 18.3902 11.29 18.2102C11.11 18.0202 11 17.7602 11 17.5002C11 17.3702 11.03 17.2402 11.08 17.1202C11.13 16.9902 11.2 16.8802 11.29 16.7902C11.66 16.4202 12.34 16.4202 12.71 16.7902C12.8 16.8802 12.87 16.9902 12.92 17.1202C12.97 17.2402 13 17.3702 13 17.5002C13 17.7602 12.89 18.0202 12.71 18.2102C12.52 18.3902 12.26 18.5002 12 18.5002Z" fill="#171717"/>
<path d="M15.5 18.4999C15.24 18.4999 14.98 18.3899 14.79 18.2099C14.7 18.1199 14.63 18.0099 14.58 17.8799C14.53 17.7599 14.5 17.6299 14.5 17.4999C14.5 17.3699 14.53 17.2399 14.58 17.1199C14.63 16.9899 14.7 16.8799 14.79 16.7899C15.02 16.5599 15.37 16.4499 15.69 16.5199C15.76 16.5299 15.82 16.5499 15.88 16.5799C15.94 16.5999 16 16.6299 16.06 16.6699C16.11 16.6999 16.16 16.7499 16.21 16.7899C16.39 16.9799 16.5 17.2399 16.5 17.4999C16.5 17.7599 16.39 18.0199 16.21 18.2099C16.02 18.3899 15.76 18.4999 15.5 18.4999Z" fill="#171717"/>
<path d="M20.5 10.3398H3.5C3.09 10.3398 2.75 9.99984 2.75 9.58984C2.75 9.17984 3.09 8.83984 3.5 8.83984H20.5C20.91 8.83984 21.25 9.17984 21.25 9.58984C21.25 9.99984 20.91 10.3398 20.5 10.3398Z" fill="#171717"/>
<path d="M16 23.25H8C4.35 23.25 2.25 21.15 2.25 17.5V9C2.25 5.35 4.35 3.25 8 3.25H16C19.65 3.25 21.75 5.35 21.75 9V17.5C21.75 21.15 19.65 23.25 16 23.25ZM8 4.75C5.14 4.75 3.75 6.14 3.75 9V17.5C3.75 20.36 5.14 21.75 8 21.75H16C18.86 21.75 20.25 20.36 20.25 17.5V9C20.25 6.14 18.86 4.75 16 4.75H8Z" fill="#171717"/>
</svg>
