<?xml version="1.0" encoding="utf-8"?><!-- Uploaded to: SVG Repo, www.svgrepo.com, Generator: SVG Repo Mixer Tools -->
<svg width="800px" height="800px" viewBox="0 -0.5 25 25" fill="none" xmlns="http://www.w3.org/2000/svg">
<path fill-rule="evenodd" clip-rule="evenodd" d="M5.50063 16.1407C5.46273 18.2335 7.1278 19.9613 9.22063 20.0007H15.7806C17.8735 19.9613 19.5385 18.2335 19.5006 16.1407L19.0636 11.4527C18.9527 9.68529 17.716 8.19053 16.0006 7.75065C15.6432 7.64667 15.2729 7.59348 14.9006 7.59265H10.1006C9.72837 7.59348 9.35808 7.64667 9.00063 7.75065C7.28636 8.19067 6.05026 9.68433 5.93863 11.4507L5.50063 16.1407Z" stroke="#000000" stroke-width="1.5" stroke-linecap="round" stroke-linejoin="round"/>
<path fill-rule="evenodd" clip-rule="evenodd" d="M10.0056 14.1216C9.33164 13.371 9.33164 12.2332 10.0056 11.4826C10.3288 11.155 10.7775 10.9824 11.237 11.009C11.6965 11.0356 12.1223 11.2588 12.4056 11.6216C12.429 11.6466 12.4618 11.6608 12.4961 11.6608C12.5304 11.6608 12.5631 11.6466 12.5866 11.6216C12.8699 11.2588 13.2956 11.0356 13.7551 11.009C14.2146 10.9824 14.6633 11.155 14.9866 11.4826C15.6605 12.2332 15.6605 13.371 14.9866 14.1216L13.7536 15.4626C13.4275 15.8061 12.9747 16.0006 12.5011 16.0006C12.0275 16.0006 11.5747 15.8061 11.2486 15.4626L10.0056 14.1216Z" stroke="#000000" stroke-width="1.5" stroke-linecap="round" stroke-linejoin="round"/>
<path d="M16.0006 9.38862V7.36762C15.9629 5.4718 14.3965 3.96493 12.5006 4.00062C10.6047 3.96493 9.03835 5.4718 9.00061 7.36762V9.38762" stroke="#000000" stroke-width="1.5" stroke-linecap="round" stroke-linejoin="round"/>
</svg>