<svg width="24" height="25" viewBox="0 0 24 25" fill="none" xmlns="http://www.w3.org/2000/svg">
<path d="M15 23.25H9C3.57 23.25 1.25 20.93 1.25 15.5V9.5C1.25 4.07 3.57 1.75 9 1.75H11C11.41 1.75 11.75 2.09 11.75 2.5C11.75 2.91 11.41 3.25 11 3.25H9C4.39 3.25 2.75 4.89 2.75 9.5V15.5C2.75 20.11 4.39 21.75 9 21.75H15C19.61 21.75 21.25 20.11 21.25 15.5V13.5C21.25 13.09 21.59 12.75 22 12.75C22.41 12.75 22.75 13.09 22.75 13.5V15.5C22.75 20.93 20.43 23.25 15 23.25Z" fill="black"/>
<path d="M8.50008 18.1896C7.89008 18.1896 7.33008 17.9696 6.92008 17.5696C6.43008 17.0796 6.22008 16.3696 6.33008 15.6196L6.76008 12.6096C6.84008 12.0296 7.22008 11.2796 7.63008 10.8696L15.5101 2.98957C17.5001 0.99957 19.5201 0.99957 21.5101 2.98957C22.6001 4.07957 23.0901 5.18957 22.9901 6.29957C22.9001 7.19957 22.4201 8.07957 21.5101 8.97957L13.6301 16.8596C13.2201 17.2696 12.4701 17.6496 11.8901 17.7296L8.88008 18.1596C8.75008 18.1896 8.62008 18.1896 8.50008 18.1896ZM16.5701 4.04957L8.69008 11.9296C8.50008 12.1196 8.28008 12.5596 8.24008 12.8196L7.81008 15.8296C7.77008 16.1196 7.83008 16.3596 7.98008 16.5096C8.13008 16.6596 8.37008 16.7196 8.66008 16.6796L11.6701 16.2496C11.9301 16.2096 12.3801 15.9896 12.5601 15.7996L20.4401 7.91957C21.0901 7.26957 21.4301 6.68957 21.4801 6.14957C21.5401 5.49957 21.2001 4.80957 20.4401 4.03957C18.8401 2.43957 17.7401 2.88957 16.5701 4.04957Z" fill="black"/>
<path d="M19.8501 10.3303C19.7801 10.3303 19.7101 10.3203 19.6501 10.3003C17.0201 9.56027 14.9301 7.47027 14.1901 4.84027C14.0801 4.44027 14.3101 4.03027 14.7101 3.91027C15.1101 3.80027 15.5201 4.03027 15.6301 4.43027C16.2301 6.56027 17.9201 8.25027 20.0501 8.85027C20.4501 8.96027 20.6801 9.38027 20.5701 9.78027C20.4801 10.1203 20.1801 10.3303 19.8501 10.3303Z" fill="black"/>
</svg>
