<svg width="24" height="25" viewBox="0 0 24 25" fill="none" xmlns="http://www.w3.org/2000/svg">
<path d="M17.79 23.2501H6.21C3.47 23.2501 1.25 21.0201 1.25 18.2801V10.8701C1.25 9.5101 2.09 7.8001 3.17 6.9601L8.56 2.7601C10.18 1.5001 12.77 1.4401 14.45 2.6201L20.63 6.9501C21.82 7.7801 22.75 9.5601 22.75 11.0101V18.2901C22.75 21.0201 20.53 23.2501 17.79 23.2501ZM9.48 3.9401L4.09 8.1401C3.38 8.7001 2.75 9.9701 2.75 10.8701V18.2801C2.75 20.1901 4.3 21.7501 6.21 21.7501H17.79C19.7 21.7501 21.25 20.2001 21.25 18.2901V11.0101C21.25 10.0501 20.56 8.7201 19.77 8.1801L13.59 3.8501C12.45 3.0501 10.57 3.0901 9.48 3.9401Z" fill="#8E8E93"/>
<path d="M12 19.2501C11.59 19.2501 11.25 18.9101 11.25 18.5001V15.5001C11.25 15.0901 11.59 14.7501 12 14.7501C12.41 14.7501 12.75 15.0901 12.75 15.5001V18.5001C12.75 18.9101 12.41 19.2501 12 19.2501Z" fill="#8E8E93"/>
</svg>
