<!DOCTYPE svg PUBLIC "-//W3C//DTD SVG 1.1//EN" "http://www.w3.org/Graphics/SVG/1.1/DTD/svg11.dtd">

<!-- Uploaded to: SVG Repo, www.svgrepo.com, Transformed by: SVG Repo Mixer Tools -->
<svg height="256px" width="256px" version="1.1" id="图层_1" xmlns="http://www.w3.org/2000/svg" xmlns:xlink="http://www.w3.org/1999/xlink" viewBox="0 0 40.00 40.00" enable-background="new 0 0 40 40" xml:space="preserve" fill="#ffffff" stroke="#ffffff" stroke-width="1.16">

<g id="SVGRepo_bgCarrier" stroke-width="0"/>

<g id="SVGRepo_tracerCarrier" stroke-linecap="round" stroke-linejoin="round"/>

<g id="SVGRepo_iconCarrier"> <g> <g> <g> <g> <path fill="#231815" d="M26,16H14c-0.3,0-0.5-0.2-0.5-0.5S13.7,15,14,15h12c0.3,0,0.5,0.2,0.5,0.5S26.3,16,26,16z"/> </g> <g> <path fill="#231815" d="M26,20.5H14c-0.3,0-0.5-0.2-0.5-0.5s0.2-0.5,0.5-0.5h12c0.3,0,0.5,0.2,0.5,0.5S26.3,20.5,26,20.5z"/> </g> <g> <path fill="#231815" d="M26,25H14c-0.3,0-0.5-0.2-0.5-0.5S13.7,24,14,24h12c0.3,0,0.5,0.2,0.5,0.5S26.3,25,26,25z"/> </g> </g> </g> </g> </g>

</svg>