<svg width="25" height="25" viewBox="0 0 25 25" fill="none" xmlns="http://www.w3.org/2000/svg">
<path d="M21.5 8.25012H3.5C3.09 8.25012 2.75 7.91012 2.75 7.50012C2.75 7.09012 3.09 6.75012 3.5 6.75012H21.5C21.91 6.75012 22.25 7.09012 22.25 7.50012C22.25 7.91012 21.91 8.25012 21.5 8.25012Z" fill="#8E8E93"/>
<path d="M21.5 13.25H3.5C3.09 13.25 2.75 12.91 2.75 12.5C2.75 12.09 3.09 11.75 3.5 11.75H21.5C21.91 11.75 22.25 12.09 22.25 12.5C22.25 12.91 21.91 13.25 21.5 13.25Z" fill="#8E8E93"/>
<path d="M21.5 18.2499H3.5C3.09 18.2499 2.75 17.9099 2.75 17.4999C2.75 17.0899 3.09 16.7499 3.5 16.7499H21.5C21.91 16.7499 22.25 17.0899 22.25 17.4999C22.25 17.9099 21.91 18.2499 21.5 18.2499Z" fill="#8E8E93"/>
</svg>
