<svg width="24" height="25" viewBox="0 0 24 25" fill="none" xmlns="http://www.w3.org/2000/svg">
<path d="M8 6.25C7.59 6.25 7.25 5.91 7.25 5.5V2.5C7.25 2.09 7.59 1.75 8 1.75C8.41 1.75 8.75 2.09 8.75 2.5V5.5C8.75 5.91 8.41 6.25 8 6.25Z" fill="black"/>
<path d="M16 6.25C15.59 6.25 15.25 5.91 15.25 5.5V2.5C15.25 2.09 15.59 1.75 16 1.75C16.41 1.75 16.75 2.09 16.75 2.5V5.5C16.75 5.91 16.41 6.25 16 6.25Z" fill="black"/>
<path d="M15 14.25H7C6.59 14.25 6.25 13.91 6.25 13.5C6.25 13.09 6.59 12.75 7 12.75H15C15.41 12.75 15.75 13.09 15.75 13.5C15.75 13.91 15.41 14.25 15 14.25Z" fill="black"/>
<path d="M12 18.25H7C6.59 18.25 6.25 17.91 6.25 17.5C6.25 17.09 6.59 16.75 7 16.75H12C12.41 16.75 12.75 17.09 12.75 17.5C12.75 17.91 12.41 18.25 12 18.25Z" fill="black"/>
<path d="M15 23.25H9C3.38 23.25 2.25 20.6 2.25 16.32V10.15C2.25 5.41 3.85 3.48 7.96 3.25H16C16.01 3.25 16.03 3.25 16.04 3.25C20.15 3.48 21.75 5.41 21.75 10.15V16.32C21.75 20.6 20.62 23.25 15 23.25ZM8 4.75C5.2 4.91 3.75 5.79 3.75 10.15V16.32C3.75 20.15 4.48 21.75 9 21.75H15C19.52 21.75 20.25 20.15 20.25 16.32V10.15C20.25 5.8 18.81 4.91 15.98 4.75H8Z" fill="black"/>
</svg>
