<svg width="24" height="24" viewBox="0 0 24 24" fill="none" xmlns="http://www.w3.org/2000/svg">
<path d="M11.9999 22.7604C10.9099 22.7604 9.8299 22.4404 8.9799 21.8104L4.6799 18.6004C3.5399 17.7504 2.6499 15.9704 2.6499 14.5604V7.12043C2.6499 5.58043 3.7799 3.94043 5.2299 3.40043L10.2199 1.53043C11.2099 1.16043 12.7699 1.16043 13.7599 1.53043L18.7499 3.40043C20.1999 3.94043 21.3299 5.58043 21.3299 7.12043V14.5504C21.3299 15.9704 20.4399 17.7404 19.2999 18.5904L14.9999 21.8004C14.1699 22.4404 13.0899 22.7604 11.9999 22.7604ZM10.7499 2.94043L5.7599 4.81043C4.9099 5.13043 4.1599 6.21043 4.1599 7.13043V14.5604C4.1599 15.5104 4.8299 16.8404 5.5799 17.4004L9.8799 20.6104C11.0299 21.4704 12.9699 21.4704 14.1299 20.6104L18.4299 17.4004C19.1899 16.8304 19.8499 15.5104 19.8499 14.5604V7.12043C19.8499 6.21043 19.0999 5.13043 18.2499 4.80043L13.2599 2.93043C12.5799 2.69043 11.4199 2.69043 10.7499 2.94043Z" fill="black"/>
<path d="M10.66 14.2301C10.47 14.2301 10.28 14.1601 10.13 14.0101L8.51999 12.4001C8.22999 12.1101 8.22999 11.6301 8.51999 11.3401C8.80999 11.0501 9.28999 11.0501 9.57999 11.3401L10.66 12.4201L14.43 8.65012C14.72 8.36012 15.2 8.36012 15.49 8.65012C15.78 8.94012 15.78 9.42012 15.49 9.71012L11.19 14.0101C11.04 14.1601 10.85 14.2301 10.66 14.2301Z" fill="black"/>
</svg>
