<svg width="33" height="25" viewBox="0 0 33 25" fill="none" xmlns="http://www.w3.org/2000/svg">
<path d="M0.802274 18.7494H2.64767L5.26297 22.9277C5.38051 23.1699 5.62147 23.291 5.91532 23.291H26.9611C27.1962 23.291 27.4371 23.1699 27.5547 22.9277L30.2287 18.7494H32.0741C32.4914 18.7494 32.844 18.386 32.844 17.9621C32.844 17.5382 32.4855 17.1749 32.0741 17.1749C32.0154 17.1749 28.924 17.1749 29.1003 17.1749C28.7418 11.3616 24.287 6.57769 18.5745 5.91158C19.1681 4.39769 18.0397 2.82324 16.494 2.82324C14.9484 2.82324 13.82 4.45824 14.4136 5.91158C8.71281 6.57769 4.25211 11.301 3.89361 17.1749C3.83484 17.1749 0.743504 17.1749 0.919816 17.1749C0.502544 17.1749 0.144043 17.5382 0.144043 17.9621C0.144043 18.386 0.379126 18.7494 0.796397 18.7494H0.802274ZM26.4851 21.7771H6.27382L4.36965 18.7494H28.3892L26.4851 21.7771ZM16.3824 4.33713C16.7997 4.33713 17.1523 4.70046 17.1523 5.12435C17.1523 5.54824 16.7938 5.91158 16.3824 5.91158C15.971 5.91158 15.6066 5.54824 15.6066 5.12435C15.6066 4.70046 15.9651 4.33713 16.3824 4.33713ZM15.6713 7.36491H17.1581C22.6297 7.36491 27.1433 11.7249 27.5018 17.2355H5.26297C5.68024 11.7249 10.1997 7.36491 15.6654 7.36491H15.6713Z" fill="url(#paint0_linear_2192_1160)"/>
<defs>
<linearGradient id="paint0_linear_2192_1160" x1="31.1773" y1="21.3722" x2="-0.410771" y2="18.687" gradientUnits="userSpaceOnUse">
<stop stop-color="#EC1C24"/>
<stop offset="0.0566526" stop-color="#ED1D23"/>
<stop offset="1" stop-color="#F92C0B"/>
</linearGradient>
</defs>
</svg>
