<svg width="19" height="20" viewBox="0 0 19 20" fill="none" xmlns="http://www.w3.org/2000/svg">
<path d="M15.2741 7.15116C14.1238 7.15116 13.098 6.60299 12.4419 5.75581L6.94767 8.82475C7.07641 9.19435 7.14701 9.59302 7.14701 10.0042C7.14701 10.4194 7.07641 10.814 6.94352 11.1877L12.4336 14.2525C13.0855 13.4012 14.1154 12.8488 15.2699 12.8488C17.2384 12.8488 18.8455 14.4518 18.8455 16.4244C18.8455 18.397 17.2425 20 15.2699 20C13.2973 20 11.6944 18.397 11.6944 16.4244C11.6944 16.0091 11.765 15.6105 11.8978 15.2409L6.41196 12.1761C5.75997 13.0316 4.73007 13.5797 3.57558 13.5797C1.60714 13.5797 0 11.9767 0 10.0042C0 8.03156 1.60714 6.42857 3.57973 6.42857C4.73422 6.42857 5.76412 6.9809 6.42027 7.83638L11.9103 4.76744C11.7774 4.39369 11.7027 3.99086 11.7027 3.57558C11.7027 1.60714 13.3056 0 15.2782 0C17.2508 0 18.8538 1.60299 18.8538 3.57558C18.8538 5.54817 17.2467 7.15116 15.2741 7.15116ZM15.2741 18.8746C16.6279 18.8746 17.7284 17.7741 17.7284 16.4203C17.7284 15.0664 16.6279 13.9659 15.2741 13.9659C13.9203 13.9659 12.8198 15.0664 12.8198 16.4203C12.8198 17.7741 13.9244 18.8746 15.2741 18.8746ZM3.57973 7.54983C2.22591 7.54983 1.12542 8.65033 1.12542 10.0042C1.12542 11.358 2.22591 12.4585 3.57973 12.4585C4.93355 12.4585 6.03405 11.358 6.03405 10.0042C6.03405 8.65033 4.9294 7.54983 3.57973 7.54983ZM15.2741 1.12542C13.9203 1.12542 12.8198 2.22591 12.8198 3.57973C12.8198 4.93355 13.9203 6.03405 15.2741 6.03405C16.6279 6.03405 17.7284 4.93355 17.7284 3.57973C17.7284 2.22591 16.6279 1.12542 15.2741 1.12542Z" fill="#F92C0B"/>
</svg>
