<svg width="24" height="25" viewBox="0 0 24 25" fill="none" xmlns="http://www.w3.org/2000/svg">
<path d="M17 21.25H7C2.59 21.25 1.25 19.91 1.25 15.5V15C1.25 14.59 1.59 14.25 2 14.25C2.96 14.25 3.75 13.46 3.75 12.5C3.75 11.54 2.96 10.75 2 10.75C1.59 10.75 1.25 10.41 1.25 10V9.5C1.25 5.09 2.59 3.75 7 3.75H17C21.41 3.75 22.75 5.09 22.75 9.5V10.5C22.75 10.91 22.41 11.25 22 11.25C21.04 11.25 20.25 12.04 20.25 13C20.25 13.96 21.04 14.75 22 14.75C22.41 14.75 22.75 15.09 22.75 15.5C22.75 19.91 21.41 21.25 17 21.25ZM2.75 15.66C2.77 19.1 3.48 19.75 7 19.75H17C20.34 19.75 21.15 19.16 21.24 16.16C19.81 15.82 18.75 14.53 18.75 13C18.75 11.47 19.82 10.18 21.25 9.84V9.5C21.25 5.93 20.57 5.25 17 5.25H7C3.48 5.25 2.77 5.9 2.75 9.34C4.18 9.68 5.25 10.97 5.25 12.5C5.25 14.03 4.18 15.32 2.75 15.66Z" fill="black"/>
<path d="M15.0002 16.3799C14.4402 16.3799 13.9902 15.9299 13.9902 15.3799C13.9902 14.8299 14.4402 14.3799 14.9902 14.3799C15.5402 14.3799 15.9902 14.8299 15.9902 15.3799C15.9902 15.9299 15.5602 16.3799 15.0002 16.3799Z" fill="black"/>
<path d="M9.00023 11.3799C8.44023 11.3799 7.99023 10.9299 7.99023 10.3799C7.99023 9.82988 8.44023 9.37988 8.99023 9.37988C9.54023 9.37988 9.99023 9.82988 9.99023 10.3799C9.99023 10.9299 9.56023 11.3799 9.00023 11.3799Z" fill="black"/>
<path d="M8.62982 16.9296C8.43982 16.9296 8.24982 16.8596 8.09982 16.7096C7.80982 16.4196 7.80982 15.9396 8.09982 15.6496L14.8298 8.91965C15.1198 8.62965 15.5998 8.62965 15.8898 8.91965C16.1798 9.20965 16.1798 9.68965 15.8898 9.97965L9.15982 16.7096C9.01982 16.8596 8.81982 16.9296 8.62982 16.9296Z" fill="black"/>
</svg>
