<svg width="24" height="25" viewBox="0 0 24 25" fill="none" xmlns="http://www.w3.org/2000/svg">
<path d="M12 23.25C6.76 23.25 2.5 18.99 2.5 13.75C2.5 8.51 6.76 4.25 12 4.25C17.24 4.25 21.5 8.51 21.5 13.75C21.5 18.99 17.24 23.25 12 23.25ZM12 5.75C7.59 5.75 4 9.34 4 13.75C4 18.16 7.59 21.75 12 21.75C16.41 21.75 20 18.16 20 13.75C20 9.34 16.41 5.75 12 5.75Z" fill="black"/>
<path d="M12 14.25C11.59 14.25 11.25 13.91 11.25 13.5V8.5C11.25 8.09 11.59 7.75 12 7.75C12.41 7.75 12.75 8.09 12.75 8.5V13.5C12.75 13.91 12.41 14.25 12 14.25Z" fill="black"/>
<path d="M15 3.25H9C8.59 3.25 8.25 2.91 8.25 2.5C8.25 2.09 8.59 1.75 9 1.75H15C15.41 1.75 15.75 2.09 15.75 2.5C15.75 2.91 15.41 3.25 15 3.25Z" fill="black"/>
</svg>
