<svg width="24" height="24" viewBox="0 0 24 24" fill="none" xmlns="http://www.w3.org/2000/svg">
<path d="M14.79 19.4203C14.68 19.4203 14.56 19.3904 14.46 19.3404C14.09 19.1504 13.94 18.7004 14.12 18.3304L16.26 14.0604C16.39 13.8104 16.65 13.6504 16.93 13.6504C17.21 13.6504 17.47 13.8104 17.6 14.0704L19.74 18.3404C19.93 18.7104 19.78 19.1603 19.4 19.3503C19.03 19.5403 18.58 19.3904 18.39 19.0104L16.93 16.0804L15.47 19.0104C15.33 19.2704 15.06 19.4203 14.79 19.4203Z" fill="black"/>
<path d="M18.6801 18.6602H15.1602C14.7502 18.6602 14.4102 18.3202 14.4102 17.9102C14.4102 17.5002 14.7502 17.1602 15.1602 17.1602H18.6801C19.0901 17.1602 19.4301 17.5002 19.4301 17.9102C19.4301 18.3202 19.1001 18.6602 18.6801 18.6602Z" fill="black"/>
<path d="M16.9198 22.7498C13.7098 22.7498 11.0898 20.1398 11.0898 16.9198C11.0898 13.6998 13.6998 11.0898 16.9198 11.0898C20.1298 11.0898 22.7498 13.6998 22.7498 16.9198C22.7498 20.1398 20.1398 22.7498 16.9198 22.7498ZM16.9198 12.5998C14.5298 12.5998 12.5898 14.5398 12.5898 16.9298C12.5898 19.3198 14.5298 21.2598 16.9198 21.2598C19.2998 21.2598 21.2498 19.3198 21.2498 16.9298C21.2498 14.5398 19.3098 12.5998 16.9198 12.5998Z" fill="black"/>
<path d="M4.61 12.46C3.5 12.46 2.62 12.15 2 11.55C1.34 10.91 1 9.94 1 8.69V4.77002C1 2.34002 2.34 1 4.77 1H8.69C9.94 1 10.9 1.33 11.55 2C12.18 2.65 12.49 3.59004 12.46 4.79004V8.69C12.49 9.91 12.18 10.87 11.53 11.52C10.88 12.17 9.91999 12.47 8.67999 12.45H4.78C4.71 12.46 4.66 12.46 4.61 12.46ZM4.77 2.51001C3.16 2.51001 2.5 3.17003 2.5 4.78003V8.70001C2.5 9.53001 2.67999 10.13 3.03999 10.48C3.38999 10.82 3.95001 10.97 4.74001 10.96H8.67999C9.51999 10.98 10.1 10.81 10.45 10.46C10.8 10.11 10.96 9.52002 10.94 8.71002V4.77002C10.96 3.97002 10.8 3.39999 10.46 3.04999C10.11 2.68999 9.50999 2.51001 8.67999 2.51001H4.77Z" fill="black"/>
<path d="M9 22.75C4.73 22.75 1.25 19.27 1.25 15C1.25 14.59 1.59 14.25 2 14.25C2.41 14.25 2.75 14.59 2.75 15C2.75 17.96 4.81 20.44 7.58 21.09L7.31 20.64C7.1 20.28 7.21001 19.82 7.57001 19.61C7.92001 19.4 8.39001 19.51 8.60001 19.87L9.64999 21.62C9.78999 21.85 9.79 22.14 9.66 22.37C9.52 22.6 9.27 22.75 9 22.75Z" fill="black"/>
<path d="M21.9999 9.75C21.5899 9.75 21.2499 9.41 21.2499 9C21.2499 6.04 19.1899 3.55997 16.4199 2.90997L16.6899 3.35999C16.8999 3.71999 16.7899 4.18001 16.4299 4.39001C16.0799 4.60001 15.6099 4.49001 15.3999 4.13L14.3499 2.38C14.2099 2.15 14.2099 1.86 14.3399 1.63C14.4699 1.39 14.7199 1.25 14.9899 1.25C19.2599 1.25 22.7399 4.73 22.7399 9C22.7499 9.41 22.4099 9.75 21.9999 9.75Z" fill="black"/>
<path d="M5.56613 8.28499C5.44238 8.21738 5.31864 8.12441 5.1949 8.00608C5.07115 7.87931 4.95901 7.73141 4.85847 7.56237C4.75793 7.39334 4.67672 7.21163 4.61485 7.01724C4.56071 6.8144 4.53364 6.60734 4.53364 6.39604C4.53364 5.9312 4.63418 5.5213 4.83527 5.16633C5.03635 4.80291 5.30704 4.51978 5.64733 4.31694C5.98763 4.10565 6.36272 4 6.77262 4C6.99691 4 7.20186 4.0169 7.38747 4.05071C7.58082 4.07606 7.77417 4.11832 7.96752 4.17748L7.7123 5.82556C7.57309 5.7833 7.43774 5.75372 7.30626 5.73682C7.18252 5.71146 7.07038 5.69878 6.96984 5.69878C6.80742 5.69878 6.66435 5.73682 6.5406 5.81288C6.41686 5.88049 6.32019 5.98191 6.25058 6.11714C6.18871 6.24391 6.15777 6.39182 6.15777 6.56085C6.15777 6.75524 6.19644 6.9285 6.27378 7.08063C6.35886 7.23276 6.4826 7.36376 6.64501 7.47363C6.81516 7.57505 7.02398 7.65534 7.27146 7.7145L5.56613 8.28499ZM4.52204 10.25L4 8.58925C4.40217 8.47093 4.83913 8.3357 5.3109 8.18357C5.78268 8.02299 6.27765 7.84128 6.79582 7.63844C7.32173 7.4356 7.85538 7.21586 8.39675 6.97921L9 8.60193C8.69064 8.73715 8.34648 8.88506 7.96752 9.04564C7.58855 9.19777 7.19412 9.3499 6.78422 9.50203C6.37432 9.65416 5.97602 9.79361 5.58933 9.92038C5.20263 10.0472 4.84687 10.157 4.52204 10.25Z" fill="black"/>
</svg>
